<svg width="30" height="30" viewBox="0 0 30 30" fill="none" xmlns="http://www.w3.org/2000/svg">
<g id="solar:exit-bold-duotone">
<path id="Vector" opacity="0.5" d="M11.315 5.625C11.25 6.3475 11.25 7.255 11.25 8.4025V21.5975C11.25 22.745 11.25 23.6525 11.315 24.375H10C7.05375 24.375 5.58 24.375 4.665 23.46C3.75 22.5437 3.75 21.0712 3.75 18.125V11.875C3.75 8.92875 3.75 7.455 4.665 6.54C5.58 5.625 7.05375 5.625 10 5.625H11.315Z" fill="white"/>
<path id="Vector_2" fill-rule="evenodd" clip-rule="evenodd" d="M12.1337 3.01118C11.25 3.79493 11.25 5.22867 11.25 8.09492V21.9049C11.25 24.7712 11.25 26.2049 12.1337 26.9887C13.0175 27.7724 14.3687 27.5374 17.0712 27.0662L19.9838 26.5587C22.9763 26.0362 24.4725 25.7749 25.3612 24.6774C26.25 23.5787 26.25 21.9912 26.25 18.8149V11.1849C26.25 8.00992 26.25 6.42243 25.3625 5.32367C24.4725 4.22617 22.975 3.96493 19.9825 3.44368L17.0725 2.93493C14.37 2.46368 13.0188 2.22868 12.135 3.01243L12.1337 3.01118ZM15.9375 13.6924C15.9375 13.1499 15.5175 12.7112 15 12.7112C14.4825 12.7112 14.0625 13.1499 14.0625 13.6912V16.3087C14.0625 16.8499 14.4825 17.2887 15 17.2887C15.5175 17.2887 15.9375 16.8499 15.9375 16.3087V13.6912V13.6924Z" fill="white"/>
</g>
</svg>
