<svg width="30" height="30" viewBox="0 0 30 30" fill="none" xmlns="http://www.w3.org/2000/svg">
<g id="gg:chart">
<g id="Group">
<path id="Vector" fill-rule="evenodd" clip-rule="evenodd" d="M28.4688 10C28.6557 10.8202 28.75 11.6588 28.75 12.5H17.5V1.25C20.0492 1.24999 22.5228 2.11575 24.5156 3.70546C26.5084 5.29516 27.9023 7.51454 28.4688 10ZM25.885 10C25.4699 8.60752 24.7146 7.34034 23.6871 6.31289C22.6597 5.28544 21.3925 4.53008 20 4.115V10H25.885Z" fill="white"/>
<path id="Vector_2" fill-rule="evenodd" clip-rule="evenodd" d="M1.25 17.5C1.24999 15.8102 1.63065 14.1421 2.36371 12.6196C3.09677 11.0971 4.16339 9.75927 5.48438 8.70548C6.80536 7.6517 8.34676 6.90904 9.99411 6.53264C11.6415 6.15624 13.3524 6.15578 15 6.53129V15H23.4688C23.8206 16.5439 23.8426 18.1447 23.5332 19.6977C23.2239 21.2507 22.5901 22.7209 21.6735 24.0121C20.7569 25.3033 19.578 26.3865 18.2139 27.1907C16.8499 27.995 15.3314 28.5023 13.7579 28.6793C12.1843 28.8564 10.5911 28.6992 9.08245 28.2182C7.57379 27.7372 6.18368 26.943 5.00303 25.8878C3.82238 24.8326 2.8778 23.54 2.23107 22.0946C1.58434 20.6492 1.25003 19.0835 1.25 17.5ZM21.0037 17.5H12.5V8.99504C10.8178 8.9948 9.17334 9.4934 7.77453 10.4278C6.37573 11.3622 5.28543 12.6904 4.64151 14.2445C3.9976 15.7985 3.82899 17.5086 4.15702 19.1585C4.48504 20.8084 5.29497 22.324 6.48436 23.5135C7.67376 24.7031 9.1892 25.5133 10.839 25.8415C12.4889 26.1698 14.199 26.0014 15.7532 25.3578C17.3073 24.7141 18.6357 23.624 19.5703 22.2253C20.5049 20.8266 21.0037 19.1822 21.0037 17.5Z" fill="white"/>
</g>
</g>
</svg>
