<svg width="15" height="15" viewBox="0 0 15 15" fill="none" xmlns="http://www.w3.org/2000/svg">
<g id="lets-icons:up">
<g clip-path="url(#clip0_1_2516)">
<rect id="Rectangle 72" width="15" height="15" transform="matrix(1 0 0 -1 0 15)" fill="#FB3636"/>
<path id="Vector" d="M8.75002 12.5L8.30814 12.9419L8.75002 13.3838L9.19189 12.9419L8.75002 12.5ZM3.75002 1.87504C3.58426 1.87504 3.42529 1.94089 3.30808 2.0581C3.19087 2.17531 3.12502 2.33428 3.12502 2.50004C3.12502 2.6658 3.19087 2.82477 3.30808 2.94198C3.42529 3.05919 3.58426 3.12504 3.75002 3.12504V1.87504ZM5.18314 9.81691L8.30814 12.9419L9.19189 12.0582L6.06689 8.93316L5.18314 9.81691ZM9.19189 12.9419L12.3169 9.81691L11.4331 8.93316L8.30814 12.0582L9.19189 12.9419ZM9.37502 12.5V6.25004H8.12502V12.5H9.37502ZM5.00002 1.87504H3.75002V3.12504H5.00002V1.87504ZM9.37502 6.25004C9.37502 5.08972 8.91408 3.97692 8.09361 3.15645C7.27314 2.33598 6.16034 1.87504 5.00002 1.87504V3.12504C5.82882 3.12504 6.62368 3.45428 7.20973 4.04033C7.79578 4.62638 8.12502 5.42124 8.12502 6.25004H9.37502Z" fill="#333B54"/>
</g>
</g>
<defs>
<clipPath id="clip0_1_2516">
<rect x="15" y="15" width="15" height="15" rx="3" transform="rotate(180 15 15)" fill="white"/>
</clipPath>
</defs>
</svg>
