<svg width="15" height="15" viewBox="0 0 15 15" fill="none" xmlns="http://www.w3.org/2000/svg">
<g id="lets-icons:up">
<g clip-path="url(#clip0_1_2506)">
<rect id="Rectangle 72" width="15" height="15" fill="#24FF00"/>
<path id="Vector" d="M8.75002 2.49996L8.30814 2.05809L8.75002 1.61621L9.19189 2.05809L8.75002 2.49996ZM3.75002 13.125C3.58426 13.125 3.42529 13.0591 3.30808 12.9419C3.19087 12.8247 3.12502 12.6657 3.12502 12.5C3.12502 12.3342 3.19087 12.1752 3.30808 12.058C3.42529 11.9408 3.58426 11.875 3.75002 11.875V13.125ZM5.18314 5.18309L8.30814 2.05809L9.19189 2.94184L6.06689 6.06684L5.18314 5.18309ZM9.19189 2.05809L12.3169 5.18309L11.4331 6.06684L8.30814 2.94184L9.19189 2.05809ZM9.37502 2.49996V8.74996H8.12502V2.49996H9.37502ZM5.00002 13.125H3.75002V11.875H5.00002V13.125ZM9.37502 8.74996C9.37502 9.91028 8.91408 11.0231 8.09361 11.8436C7.27314 12.664 6.16034 13.125 5.00002 13.125V11.875C5.82882 11.875 6.62368 11.5457 7.20973 10.9597C7.79578 10.3736 8.12502 9.57876 8.12502 8.74996H9.37502Z" fill="#333B54"/>
</g>
</g>
<defs>
<clipPath id="clip0_1_2506">
<rect width="15" height="15" rx="3" transform="matrix(-1 0 0 1 15 0)" fill="white"/>
</clipPath>
</defs>
</svg>
